<svg width="500px" height="500px" viewBox="0 0 110 110" version="1.1" xmlns="http://www.w3.org/2000/svg">
    <g stroke="none" stroke-width="1" fill="none" fill-rule="evenodd">
        <g id="logo">
            <g id="logo-main" fill="#455f72">
                <path d="M30.733,45.177 L29.817,44.261 L29.612,44.058 L28.697,43.142 C27.859,42.304 27.202,41.857 26.727,41.801 C26.252,41.745 25.744,41.988 25.205,42.527 C25.132,42.601 25.04,42.679 24.954,42.774 L22.93,44.797 L25.907,47.764 L25.907,47.763 L26.009,47.866 L26.111,47.969 L26.111,47.97 L29.077,50.947 L31.101,48.923 C31.196,48.836 31.275,48.745 31.348,48.672 C31.888,48.132 32.13,47.624 32.074,47.149 C32.018,46.672 31.571,46.016 30.733,45.177 L30.733,45.177 Z"></path>
                <path d="M75.258,78.951 L78.581,75.629 L78.576,75.624 C96.018,57.825 99.062,35.528 99.262,33.919 L99.262,0.564 L0.078,0.564 L0.078,99.733 L33.419,99.733 C34.721,99.574 57.352,96.559 75.254,78.947 L75.258,78.951 L75.258,78.951 Z M78.07,69.744 L65.601,57.275 L69.063,53.814 L81.187,65.938 C80.212,67.218 79.174,68.488 78.07,69.744 L78.07,69.744 Z M86.159,58.543 C85.33,59.947 84.437,61.362 83.472,62.778 L76.584,55.89 L80.045,52.429 L86.159,58.543 L86.159,58.543 Z M47.666,11.565 C48.198,10.196 49.08,8.895 50.314,7.661 C51.989,5.985 54.223,4.4 55.959,3.957 C57.697,3.515 59.22,3.607 60.53,4.231 C61.839,4.856 63.513,6.189 65.555,8.231 L66.051,8.727 L60.753,14.026 L57.35,10.622 C56.624,9.898 55.439,9.898 54.714,10.622 L53.902,11.435 C53.177,12.16 53.177,13.345 53.902,14.07 L66.267,26.435 C66.992,27.159 68.177,27.16 68.902,26.435 L69.714,25.623 C70.439,24.898 70.44,23.712 69.714,22.987 L66.178,19.451 L71.476,14.153 L72.066,14.741 C74.33,17.005 75.776,18.771 76.403,20.037 C77.03,21.303 77.153,22.841 76.772,24.647 C76.389,26.454 74.87,28.687 73.267,30.29 C71.6,31.955 69.925,33.027 68.242,33.505 C66.556,33.983 65.006,33.864 63.587,33.147 C62.169,32.43 60.388,31.001 58.244,28.857 L51.854,22.467 C50.278,20.891 49.15,19.655 48.47,18.759 C47.791,17.862 47.353,16.781 47.159,15.516 C46.965,14.252 47.135,12.934 47.666,11.565 L47.666,11.565 Z M42.75,15.502 L46.931,19.683 L42.349,24.265 L60.796,42.712 L55.189,48.318 L36.741,29.872 L32.174,34.439 L27.993,30.258 L42.75,15.502 L42.75,15.502 Z M26.465,77.096 L3.852,54.482 L9.323,49.01 L31.937,71.623 L26.465,77.096 L26.465,77.096 Z M35.358,68.193 L28.66,61.495 L20.622,53.456 L20.417,53.253 L12.758,45.594 L18.178,40.182 L21.936,36.423 C23.221,35.138 24.439,34.274 25.589,33.832 C26.739,33.39 27.793,33.351 28.753,33.713 C29.711,34.076 30.913,34.979 32.357,36.423 L34.802,38.868 L35.007,39.073 L37.452,41.519 C38.896,42.961 39.799,44.163 40.162,45.122 C40.524,46.082 40.485,47.136 40.043,48.286 C39.601,49.436 38.736,50.653 37.451,51.938 L33.693,55.696 L34.076,56.08 L40.774,62.778 L35.358,68.193 L35.358,68.193 Z M57.928,86.706 L51.849,80.627 L55.309,77.165 L62.17,84.026 C60.753,84.988 59.335,85.881 57.928,86.706 L57.928,86.706 Z M65.342,81.751 L53.234,69.644 L56.695,66.182 L69.155,78.643 C67.896,79.743 66.623,80.778 65.342,81.751 L65.342,81.751 Z M72.163,75.856 C72.103,75.915 72.045,75.97 71.986,76.028 L53.28,57.322 L56.741,53.86 L75.454,72.573 L72.167,75.86 L72.163,75.856 L72.163,75.856 Z"></path>
            </g>
            <path d="M104.06,38.42 C104.035,38.659 101.375,61.836 83.365,80.217 L83.369,80.221 L80.047,83.543 L80.043,83.539 C61.699,101.586 38.387,104.306 38.147,104.332 L38.688,109.394 C39.504,109.307 54.289,107.612 70.038,97.829 L97.869,97.829 L97.869,69.806 C107.377,54.245 109.039,39.767 109.125,38.959 L104.06,38.42 L104.06,38.42 Z" id="logo-dish" fill="#4a90e2"></path>
        </g>
    </g>
</svg>
